<?xml version="1.0" encoding="utf-8"?>
<!-- Generator: Adobe Illustrator 16.0.4, SVG Export Plug-In . SVG Version: 6.00 Build 0)  -->
<!DOCTYPE svg PUBLIC "-//W3C//DTD SVG 1.1//EN" "http://www.w3.org/Graphics/SVG/1.1/DTD/svg11.dtd">
<svg version="1.1" id="Layer_1" xmlns="http://www.w3.org/2000/svg" xmlns:xlink="http://www.w3.org/1999/xlink" x="0px" y="0px"
	 width="70.133px" height="24.666px" viewBox="0 0 70.133 24.666" enable-background="new 0 0 70.133 24.666" xml:space="preserve">
<g>
	<path fill="#FFFFFF" d="M10.37,4.668H1.133v0.177C2.896,5.378,4.272,5.394,4.272,7.54v12.292c0,1.949-1.586,1.977-3.139,2.445
		v0.172h9.071c5.338,0,10.72-2.982,10.72-8.89C20.924,7.436,16,4.668,10.37,4.668z M10.293,21.306H6.88
		c-0.035-0.404-0.077-0.814-0.077-1.223V6.909c0-0.411,0.047-0.825,0.077-1.235h2.532c5.017,0,8.262,2.423,8.262,7.661
		C17.674,18.038,15.231,21.306,10.293,21.306z"/>
</g>
<g>
	<path fill="#FFFFFF" d="M29.932,4.668h-9.235v0.177c1.781,0.536,3.122,0.54,3.122,2.694v12.292c0,1.959-1.562,1.977-3.122,2.445
		v0.172h9.056c5.342,0,10.707-2.986,10.707-8.89C40.459,7.448,35.562,4.668,29.932,4.668z M29.843,21.306h-3.401
		c-0.078-0.377-0.09-0.84-0.09-1.223V6.909c0-0.393,0.017-0.847,0.09-1.235h2.52c5.018,0,8.262,2.423,8.262,7.661
		C37.223,18.036,34.775,21.306,29.843,21.306z"/>
</g>
<g id="XMLID_26_">
	<g>
		<path fill="#FFFFFF" d="M48.917,22.281v0.173h-8.789v-0.173c1.552-0.471,3.136-0.495,3.136-2.451V7.539
			c0-2.142-1.378-2.158-3.136-2.69V4.671h8.789v0.177c-1.3,0.392-3.12,0.574-3.12,2.315v13.001
			C45.796,21.736,47.798,21.938,48.917,22.281z"/>
	</g>
	<g>
	</g>
</g>
<g id="XMLID_25_">
	<g>
		<path fill="#FFFFFF" d="M67.95,13.212h-3.119c-0.062-1.105-0.202-2.112-0.599-3.156h3.128
			C67.657,11.128,67.924,12.09,67.95,13.212z"/>
		<path fill="#FFFFFF" d="M64.785,13.823h3.165c-0.017,0.998-0.244,1.988-0.558,2.921h-3.371
			C64.438,15.602,64.591,15.04,64.785,13.823z"/>
		<path fill="#FFFFFF" d="M67.104,9.445h-3.132c-1.185-2.451-3.091-4.188-5.216-5.81C62.318,3.908,65.614,6.19,67.104,9.445z"/>
		<path fill="#FFFFFF" d="M63.568,10.056c0.363,1.126,0.647,1.948,0.681,3.156h-2.831c-0.053-1.064-0.123-2.096-0.28-3.156H63.568z"
			/>
		<path fill="#FFFFFF" d="M61.417,13.823h2.798c-0.186,1.102-0.354,1.897-0.821,2.921h-2.368
			C61.163,15.771,61.38,14.821,61.417,13.823z"/>
		<path fill="#FFFFFF" d="M63.275,9.445h-2.249c-0.351-1.671-0.879-3.354-1.877-4.749C60.894,5.996,62.248,7.514,63.275,9.445z"/>
		<path fill="#FFFFFF" d="M60.803,13.212h-2.385v-3.156h2.125c0.091,0.599,0.173,1.193,0.214,1.795
			C60.787,12.305,60.774,12.758,60.803,13.212z"/>
		<path fill="#FFFFFF" d="M58.418,13.823h2.385c-0.017,0.974-0.206,1.972-0.413,2.921h-1.972V13.823z"/>
		<path fill="#FFFFFF" d="M58.947,22.331c0.788-1.609,1.493-3.223,1.927-4.977h2.207C62.02,19.228,60.597,20.94,58.947,22.331z"/>
		<path fill="#FFFFFF" d="M58.728,23.296c1.96-1.588,3.866-3.685,5.013-5.941h3.416C65.671,20.726,62.429,23.069,58.728,23.296z"/>
		<path fill="#FFFFFF" d="M60.247,17.354c-0.521,1.671-1.032,3.256-1.828,4.823v-4.823H60.247z"/>
		<path fill="#FFFFFF" d="M58.418,4.593c1.056,1.696,1.522,2.896,1.997,4.852h-1.997V4.593z"/>
		<path fill="#FFFFFF" d="M57.812,17.354v4.799c-0.829-1.478-1.399-3.169-1.828-4.799H57.812z"/>
		<path fill="#FFFFFF" d="M57.812,13.823v2.921h-1.989c-0.198-0.697-0.408-1.956-0.408-2.678v-0.243H57.812z"/>
		<path fill="#FFFFFF" d="M57.812,10.056v3.156h-2.397v-0.557c0-0.829,0.083-1.782,0.26-2.6H57.812z"/>
		<path fill="#FFFFFF" d="M57.812,4.618v4.828h-2.01C56.162,7.708,56.813,6.083,57.812,4.618z"/>
		<path fill="#FFFFFF" d="M55.353,17.354c0.354,1.671,1.085,3.475,1.914,4.977c-1.543-1.218-3.206-3.247-4.113-4.977H55.353z"/>
		<path fill="#FFFFFF" d="M57.486,3.636c-2.101,1.535-4.135,3.4-5.236,5.81h-3.152C50.562,6.136,53.868,3.846,57.486,3.636z"/>
		<path fill="#FFFFFF" d="M57.069,4.696c-0.907,1.143-1.621,3.33-1.864,4.749h-2.258C53.851,7.65,55.422,5.855,57.069,4.696z"/>
		<path fill="#FFFFFF" d="M52.494,17.354c1.048,2.125,3.115,4.498,5,5.941c-3.668-0.136-7.03-2.591-8.449-5.941H52.494z"/>
		<path fill="#FFFFFF" d="M54.812,13.212h-2.83v-0.264c0-0.928,0.334-2.034,0.681-2.893h2.426
			C54.875,11.038,54.784,12.206,54.812,13.212z"/>
		<path fill="#FFFFFF" d="M54.812,13.823c-0.045,0.907,0.194,2.042,0.393,2.921h-2.369c-0.475-0.875-0.729-1.931-0.837-2.921H54.812
			z"/>
		<path fill="#FFFFFF" d="M52.201,16.744h-3.392c-0.297-0.697-0.562-1.89-0.562-2.648v-0.272h3.189
			C51.532,14.862,51.788,15.795,52.201,16.744z"/>
		<path fill="#FFFFFF" d="M48.846,10.056h3.144c-0.404,0.9-0.61,2.175-0.586,3.156h-3.156C48.203,12.172,48.5,11.03,48.846,10.056z"
			/>
	</g>
	<g>
	</g>
</g>
<g>
	<path fill="#FFFFFF" d="M66.055,2.726c0-0.862,0.676-1.576,1.529-1.576c0.85,0,1.555,0.685,1.555,1.558
		c0,0.881-0.688,1.577-1.555,1.577C66.747,4.285,66.055,3.575,66.055,2.726z M68.979,2.723c0-0.788-0.611-1.411-1.383-1.411
		s-1.381,0.623-1.381,1.411c0,0.757,0.615,1.394,1.369,1.394C68.348,4.117,68.979,3.507,68.979,2.723z M66.858,1.729h0.73
		c0.164,0,0.373,0,0.516,0.093c0.123,0.07,0.193,0.22,0.193,0.358c0,0.269-0.24,0.47-0.488,0.487
		c0.201,0.045,0.307,0.284,0.383,0.457c0.037,0.076,0.102,0.222,0.156,0.287c0.039,0.048,0.084,0.058,0.16,0.058v0.092h-0.121
		c-0.1,0-0.215,0.014-0.303-0.054C68,3.441,67.932,3.253,67.893,3.158c-0.115-0.272-0.127-0.435-0.449-0.435h-0.078V3.23
		c0,0.058-0.018,0.229,0.078,0.235l0.141,0.01v0.086h-0.727V3.475l0.086-0.006c0.102,0,0.127-0.033,0.127-0.129V1.931
		c-0.012-0.086-0.055-0.102-0.135-0.105l-0.078-0.004V1.729z M67.434,2.621C67.725,2.621,68,2.583,68,2.213
		c0-0.12-0.039-0.245-0.141-0.321C67.776,1.83,67.682,1.83,67.584,1.83c-0.186,0-0.219,0-0.219,0.192v0.599H67.434z"/>
</g>
</svg>
